solid Dental3DDemo
  facet normal 0 0 -1
    outer loop
      vertex -1 -1 0
      vertex 1 1 0
      vertex 1 -1 0
    endloop
  endfacet
  facet normal 0 0 -1
    outer loop
      vertex -1 -1 0
      vertex -1 1 0
      vertex 1 1 0
    endloop
  endfacet
  facet normal 0 -0.894427 0.447214
    outer loop
      vertex -1 -1 0
      vertex 1 -1 0
      vertex 0 0 2
    endloop
  endfacet
  facet normal 0.894427 0 0.447214
    outer loop
      vertex 1 -1 0
      vertex 1 1 0
      vertex 0 0 2
    endloop
  endfacet
  facet normal 0 0.894427 0.447214
    outer loop
      vertex 1 1 0
      vertex -1 1 0
      vertex 0 0 2
    endloop
  endfacet
  facet normal -0.894427 0 0.447214
    outer loop
      vertex -1 1 0
      vertex -1 -1 0
      vertex 0 0 2
    endloop
  endfacet
endsolid Dental3DDemo
